HIERARCHY
ROOT Hips
{
  OFFSET 56.4868 96.9218 10.0107
  CHANNELS 6 Xposition Yposition Zposition Zrotation Xrotation Yrotation
  JOINT spine
  {
    OFFSET 0 7.96568 0.458067
    CHANNELS 3 Zrotation Xrotation Yrotation
    JOINT spine1
    {
      OFFSET 0 10.2431 0
      CHANNELS 3 Zrotation Xrotation Yrotation
      JOINT spine2
      {
        OFFSET 0 9.81475 0
        CHANNELS 3 Zrotation Xrotation Yrotation
        JOINT Neck
        {
          OFFSET 0 25.1986 1.20138
          CHANNELS 3 Zrotation Xrotation Yrotation
          JOINT Head
          {
            OFFSET 0 7.61315 0
            CHANNELS 3 Zrotation Xrotation Yrotation
            End Site
            {
              OFFSET 0 18.4281 -6.07733
            }
          }
        }
        JOINT RightShoulder
        {
          OFFSET -4.1327 10.5992 -0.575451
          CHANNELS 3 Zrotation Xrotation Yrotation
          JOINT RightArm
          {
            OFFSET 0 13.9018 0
            CHANNELS 3 Zrotation Xrotation Yrotation
            JOINT RightArmRoll
            {
              OFFSET 0 7.01788 0
              CHANNELS 3 Zrotation Xrotation Yrotation
              JOINT RightForeArm
              {
                OFFSET 0 20.4406 0
                CHANNELS 3 Zrotation Xrotation Yrotation
                JOINT RightForeArmRoll
                {
                  OFFSET 0 7.87515 0
                  CHANNELS 3 Zrotation Xrotation Yrotation
                  JOINT RightHand
                  {
                    OFFSET 0 15.8037 0
                    CHANNELS 3 Zrotation Xrotation Yrotation
                    End Site
                    {
                      OFFSET 0 0 0
                    }
                  }
                }
              }
            }
          }
        }
        JOINT LeftShoulder
        {
          OFFSET 4.1327 10.5992 -0.575451
          CHANNELS 3 Zrotation Xrotation Yrotation
          JOINT LeftArm
          {
            OFFSET 0 13.9018 0
            CHANNELS 3 Zrotation Xrotation Yrotation
            JOINT LeftArmRoll
            {
              OFFSET 0 7.01788 0
              CHANNELS 3 Zrotation Xrotation Yrotation
              JOINT LeftForeArm
              {
                OFFSET 0 20.4406 0
                CHANNELS 3 Zrotation Xrotation Yrotation
                JOINT LeftForeArmRoll
                {
                  OFFSET 0 7.87516 0
                  CHANNELS 3 Zrotation Xrotation Yrotation
                  JOINT LeftHand
                  {
                    OFFSET 0 15.8037 0
                    CHANNELS 3 Zrotation Xrotation Yrotation
                    End Site
                    {
                      OFFSET 0 0 0
                    }
                  }
                }
              }
            }
          }
        }
      }
    }
  }
  JOINT RightUpLeg
  {
    OFFSET -7.06048 -1.2947 -1.0861
    CHANNELS 3 Zrotation Xrotation Yrotation
    JOINT RightUpLegRoll
    {
      OFFSET 0 18.5308 0
      CHANNELS 3 Zrotation Xrotation Yrotation
      JOINT RightLeg
      {
        OFFSET 0 -22.9476 0
        CHANNELS 3 Zrotation Xrotation Yrotation
        JOINT RightLegRoll
        {
          OFFSET 0 23.0226 0
          CHANNELS 3 Zrotation Xrotation Yrotation
          JOINT RightFoot
          {
            OFFSET 0 19.1625 0
            CHANNELS 3 Zrotation Xrotation Yrotation
            JOINT RightToeBase
            {
              OFFSET 0 16.0188 0
              CHANNELS 3 Zrotation Xrotation Yrotation
              End Site
              {
                OFFSET 0.00678979 7.75782 -0.894206
              }
            }
          }
        }
      }
    }
  }
  JOINT LeftUpLeg
  {
    OFFSET 7.06048 -1.2947 -1.0861
    CHANNELS 3 Zrotation Xrotation Yrotation
    JOINT LeftUpLegRoll
    {
      OFFSET 0 18.5309 0
      CHANNELS 3 Zrotation Xrotation Yrotation
      JOINT LeftLeg
      {
        OFFSET 0 22.9475 0
        CHANNELS 3 Zrotation Xrotation Yrotation
        JOINT LeftLegRoll
        {
          OFFSET 0 23.2355 0
          CHANNELS 3 Zrotation Xrotation Yrotation
          JOINT LeftFoot
          {
            OFFSET 0 18.9496 0
            CHANNELS 3 Zrotation Xrotation Yrotation
            JOINT LeftToeBase
            {
              OFFSET 0 16.0188 0
              CHANNELS 3 Zrotation Xrotation Yrotation
              End Site
              {
                OFFSET -0.0304289 7.75781 -0.894207
              }
            }
          }
        }
      }
    }
  }
}
MOTION
Frames: 4
Frame Time: 0.00208333
57.4247 96.9383 9.27117 -0.132491 -4.71904 0.89974 0.199173 -0.248057 -0.334498 0.400619 3.50686 -0.678684 0.409321 5.15187 -0.686203 -12.2563 11.5745 3.65695 10.3185 -1.15346 1.69118 66.7014 -2.72773 -2.3896 108.182 24.9438 8.98365 -7.95139e-015 3.18055e-015 1.59028e-015 2.53739 5.52313 -1.08454 -5.43533e-006 3.45746e-006 -3.00553 8.02994 -4.95143 0.697662 -66.1019 -4.66413 3.37207 -104.648 19.0574 -5.02906 3.94799e-005 -1.57703e-006 2.23847e-006 -6.9122 1.06565 0.785778 3.47719e-007 -2.9742e-006 3.00991 -8.02927 -4.95144 -0.697654 172.962 -2.74666 5.36236 180 7.01518e-015 178.804 177.737 4.79329 179.746 1.36169e-006 -1.87513e-007 0.0590511 -19.0424 68.2376 19.7414 8.1365 25.2327 -3.48773 -175.098 -7.37496 -3.00291 4.5067e-006 -1.99009e-005 -1.26227 -3.78055 -3.63665 -0.0775669 -1.76249e-007 -2.57341e-006 -0.0496101 18.7128 67.8864 -19.4225 -8.13649 25.2327 3.48774 
57.4216 96.937 9.25712 -0.129669 -4.69813 0.900801 0.199445 -0.250904 -0.333491 0.401164 3.50264 -0.678332 0.409862 5.14764 -0.685852 -12.2554 11.6238 3.67421 10.3233 -1.18393 1.70691 66.6786 -2.73852 -2.39335 108.13 24.7836 9.11048 -1.03368e-014 9.54166e-015 -6.36111e-015 2.49617 5.71302 -1.0874 -5.43533e-006 3.45746e-006 -3.00553 8.02994 -4.95143 0.697662 -66.0976 -4.66574 3.37265 -104.613 18.9248 -5.15117 3.94799e-005 -1.57703e-006 2.23847e-006 -6.84666 1.16733 0.795332 3.47719e-007 -2.9742e-006 3.00991 -8.02927 -4.95144 -0.697654 172.955 -2.72627 5.36419 180 7.01518e-015 178.804 177.734 4.79433 179.746 1.36169e-006 -1.87513e-007 0.0590511 -19.0464 68.2423 19.7457 8.1365 25.2327 -3.48773 -175.104 -7.35399 -2.99706 4.5067e-006 -1.99009e-005 -1.26226 -3.77999 -3.63604 -0.0777425 -1.76249e-007 -2.57341e-006 -0.0496101 18.713 67.8866 -19.4227 -8.13649 25.2327 3.48774 
57.4173 96.9381 9.26315 -0.126683 -4.67698 0.901727 0.199639 -0.253853 -0.332447 0.401555 3.49833 -0.677943 0.410249 5.14333 -0.685461 -12.2547 11.6739 3.6915 10.3287 -1.21618 1.72274 66.6563 -2.74893 -2.39692 108.077 24.6221 9.23372 2.38542e-015 -3.18055e-015 6.36111e-015 2.45839 5.90456 -1.09079 -5.43533e-006 3.45746e-006 -3.00553 8.02994 -4.95143 0.697662 -66.0922 -4.6667 3.37282 -104.579 18.7908 -5.27162 3.94799e-005 -1.57703e-006 2.23847e-006 -6.78301 1.26881 0.805017 3.47719e-007 -2.9742e-006 3.00991 -8.02927 -4.95144 -0.697654 172.948 -2.70556 5.36627 180 7.01518e-015 178.804 177.732 4.79542 179.746 1.36169e-006 -1.87513e-007 0.0590511 -19.0504 68.2469 19.7501 8.1365 25.2327 -3.48773 -175.11 -7.33282 -2.99098 4.5067e-006 -1.99009e-005 -1.26227 -3.77937 -3.63529 -0.0779331 -1.76249e-007 -2.57341e-006 -0.0496101 18.7132 67.8868 -19.4229 -8.13649 25.2327 3.48774 
57.4443 96.9332 9.24825 -0.123583 -4.65566 0.902561 0.19978 -0.256874 -0.331378 0.401838 3.49397 -0.677527 0.410527 5.13897 -0.68504 -12.2541 11.7247 3.70881 10.3346 -1.24966 1.73865 66.6343 -2.75908 -2.40038 108.025 24.4598 9.35439 1.90833e-014 -3.18055e-015 1.11319e-014 2.42304 6.09726 -1.09455 -5.43533e-006 3.45746e-006 -3.00553 8.02994 -4.95143 0.697662 -66.086 -4.66721 3.37271 -104.545 18.656 -5.39088 3.94799e-005 -1.57703e-006 2.23847e-006 -6.7207 1.37015 0.814793 3.47719e-007 -2.9742e-006 3.00991 -8.02927 -4.95144 -0.697654 172.941 -2.68463 5.36852 180 7.01518e-015 178.804 177.729 4.7966 179.746 1.36169e-006 -1.87513e-007 0.0590511 -19.0545 68.2517 19.7545 8.1365 25.2327 -3.48773 -175.117 -7.31152 -2.98474 4.5067e-006 -1.99009e-005 -1.26229 -3.77871 -3.63445 -0.0781343 -1.76249e-007 -2.57341e-006 -0.0496101 18.7134 67.887 -19.423 -8.13649 25.2327 3.48774 
